<?xml version="1.0" encoding="UTF-8"?>
<svg width="18px" height="19px" viewBox="0 0 18 19" version="1.1" xmlns="http://www.w3.org/2000/svg" xmlns:xlink="http://www.w3.org/1999/xlink">
    <title>Shape</title>
    <g id="Page-1" stroke="none" stroke-width="1" fill="none" fill-rule="evenodd">
        <path d="M17.512,17.417 L12.726,12.629 C15.1917401,9.74218983 14.9364446,5.42309555 12.1477918,2.84686514 C9.35913901,0.270634726 5.03338096,0.35763178 2.35056443,3.0439011 C-0.33225211,5.73017043 -0.413685418,10.0560368 2.16612955,12.8413738 C4.74594452,15.6267108 9.06536358,15.876451 11.949,13.407 L16.734,18.195 C16.8704856,18.3446127 17.0781476,18.4071172 17.2745401,18.3576982 C17.4709327,18.3082792 17.6242792,18.1549327 17.6736982,17.9585401 C17.7231172,17.7621476 17.6606127,17.5544856 17.511,17.418 L17.512,17.417 Z M1.427,8.054 C1.43141688,4.7711599 4.09548441,2.1130588 7.37832616,2.11599995 C10.6611679,2.11894598 13.3204643,4.78182034 13.3189946,8.06466308 C13.3175237,11.3475058 10.6558431,14.008 7.373,14.008 C4.0885071,14.0019354 1.4286485,11.3384981 1.427,8.054 L1.427,8.054 Z" id="Shape" fill="#FFFFFF" fill-rule="nonzero"></path>
    </g>
</svg>